<svg xmlns="http://www.w3.org/2000/svg" width="40" height="20" viewBox="0 0 40 20">
  <metadata><?xpacket begin="﻿" id="W5M0MpCehiHzreSzNTczkc9d"?>
<x:xmpmeta xmlns:x="adobe:ns:meta/" x:xmptk="Adobe XMP Core 5.6-c142 79.160924, 2017/07/13-01:06:39        ">
   <rdf:RDF xmlns:rdf="http://www.w3.org/1999/02/22-rdf-syntax-ns#">
      <rdf:Description rdf:about=""/>
   </rdf:RDF>
</x:xmpmeta>
                                                                                                    
                                                                                                    
                                                                                                    
                                                                                                    
                                                                                                    
                                                                                                    
                                                                                                    
                                                                                                    
                                                                                                    
                                                                                                    
                                                                                                    
                                                                                                    
                                                                                                    
                                                                                                    
                                                                                                    
                                                                                                    
                                                                                                    
                                                                                                    
                                                                                                    
                                                                                                    
                           
<?xpacket end="w"?></metadata>
<defs>
    <style>
      .cls-1, .cls-2 {
        fill-rule: evenodd;
      }

      .cls-2 {
        fill: #fff;
      }
    </style>
  </defs>
  <path class="cls-1" d="M19.675,9.586A12.369,12.369,0,0,0,10.154,5C10.1,5,9.9,5,9.845,5A12.369,12.369,0,0,0,.324,9.586a1.449,1.449,0,0,0,0,1.828,12.308,12.308,0,0,0,4.2,3.341A12.431,12.431,0,0,0,9.845,16c0.052,0,.258,0,0.309,0a12.432,12.432,0,0,0,5.317-1.245,12.308,12.308,0,0,0,4.2-3.341A1.449,1.449,0,0,0,19.675,9.586ZM4.892,14.047a11.5,11.5,0,0,1-3.926-3.12,0.679,0.679,0,0,1,0-.856,11.494,11.494,0,0,1,3.926-3.12,11.66,11.66,0,0,1,1.322-.543,5.385,5.385,0,0,0,0,8.182A11.658,11.658,0,0,1,4.892,14.047ZM10,15.211A4.791,4.791,0,0,1,5.144,10.5,4.791,4.791,0,0,1,10,5.787,4.791,4.791,0,0,1,14.855,10.5,4.791,4.791,0,0,1,10,15.211Zm9.034-4.284a11.5,11.5,0,0,1-3.926,3.12,11.646,11.646,0,0,1-1.32.542,5.385,5.385,0,0,0,0-8.182,11.674,11.674,0,0,1,1.322.544,11.5,11.5,0,0,1,3.926,3.12A0.68,0.68,0,0,1,19.033,10.928ZM10,8.483A2.017,2.017,0,1,0,12.077,10.5,2.05,2.05,0,0,0,10,8.483Zm0,3.243A1.227,1.227,0,1,1,11.264,10.5,1.247,1.247,0,0,1,10,11.726Z"/>
  <path id="Shape_1_copy" data-name="Shape 1 copy" class="cls-2" d="M39.675,9.586A12.369,12.369,0,0,0,30.154,5C30.1,5,29.9,5,29.845,5a12.369,12.369,0,0,0-9.521,4.585,1.449,1.449,0,0,0,0,1.828,12.308,12.308,0,0,0,4.2,3.341A12.431,12.431,0,0,0,29.845,16c0.052,0,.258,0,0.309,0a12.432,12.432,0,0,0,5.317-1.245,12.308,12.308,0,0,0,4.2-3.341A1.449,1.449,0,0,0,39.675,9.586ZM24.892,14.047a11.5,11.5,0,0,1-3.926-3.12,0.679,0.679,0,0,1,0-.856,11.494,11.494,0,0,1,3.926-3.12,11.66,11.66,0,0,1,1.322-.543,5.385,5.385,0,0,0,0,8.182A11.657,11.657,0,0,1,24.892,14.047ZM30,15.211A4.791,4.791,0,0,1,25.144,10.5a4.858,4.858,0,0,1,9.711,0A4.791,4.791,0,0,1,30,15.211Zm9.034-4.284a11.5,11.5,0,0,1-3.926,3.12,11.646,11.646,0,0,1-1.321.542,5.385,5.385,0,0,0,0-8.182,11.674,11.674,0,0,1,1.322.544,11.5,11.5,0,0,1,3.926,3.12A0.68,0.68,0,0,1,39.033,10.928ZM30,8.483A2.017,2.017,0,1,0,32.077,10.5,2.05,2.05,0,0,0,30,8.483Zm0,3.243A1.227,1.227,0,1,1,31.264,10.5,1.247,1.247,0,0,1,30,11.726Z"/>
</svg>
